# xmcd
#
# Track frame offsets:
#	150
#	13058
#	30127
#	47053
#	58239
#	74730
#	89214
#	101094
#	119330
#	139744
#
# Disc length: 2106 seconds
#
# Revision: 1
# Processed by: cddbd v1.5.2PL0 Copyright (c) Steve Scherf et al.
# Submitted via: audiograbber 1.83.01
#
DISCID=9208380a
DTITLE=Alan Jackson - Country
DYEAR=2014
DGENRE=Country
TTITLE0=Don't Rock The Jukebox
TTITLE1=That's All I Need To Know
TTITLE2=Midnight In Montgomery
TTITLE3=Chattahoochee
TTITLE4=Mercury Blues
TTITLE5=Summertime Blues
TTITLE6=Buicks To The Moon
TTITLE7=Drive (For Daddy Gene)
TTITLE8=Remember When
TTITLE9=Where Do I Go From Here
EXTD=
EXTT0=
EXTT1=
EXTT2=
EXTT3=
EXTT4=
EXTT5=
EXTT6=
EXTT7=
EXTT8=
EXTT9=
PLAYORDER=
